<svg xmlns="http://www.w3.org/2000/svg" viewBox="0 0 128 128" fill="#2dbdb8"><path d="M88.82 28.37c-4.27-.02-8.5.66-12.55 2.01l.07-24.16-24.16-.07-.07 24.17-.03-.01A39.3 39.3 0 0 0 .16 67.41L0 121.78l24.1.07.05-18.13a39.17 39.17 0 0 0 15.18 3.09c4.39.01 8.6-.7 12.54-2.01h.02l-.01 2.05 24.15.07.01-2.06a39.3 39.3 0 1 0 12.78-76.5zm7.85 53.45a17.46 17.46 0 0 1-20.53-.06 17.4 17.4 0 0 0-12.1-4.92 17.42 17.42 0 0 0-12.1 4.84A17.46 17.46 0 1 1 52 53.42a17.4 17.4 0 0 0 12.09 4.91h.01a17.4 17.4 0 0 0 12.11-4.83A17.46 17.46 0 1 1 96.67 81.8z"/></svg>
