<svg xmlns="http://www.w3.org/2000/svg" viewBox="0 0 180 130"><path d="M170.181 129.918H10.177c-5.522 0-9.998-4.476-9.998-9.998V9.916c0-5.522 4.476-9.998 9.998-9.998h160.004c5.522 0 9.998 4.476 9.998 9.998V119.92c0 5.522-4.476 9.998-9.998 9.998z" style="fill:#e0e0e0"/><path d="M170.181 129.918H10.177c-5.522 0-9.998-4.476-9.998-9.998l90-84.002 90 84.002c0 5.522-4.476 9.998-9.998 9.998z" style="fill:#ececec"/><path d="M.179 9.916c0-5.522 4.476-9.998 9.998-9.998h160.004c5.522 0 9.998 4.476 9.998 9.998l-83.7 67.892a10 10 0 0 1-12.599 0L.179 9.916z" style="fill:hsl(var(--color-bermuda)"/></svg>
