<svg xmlns="http://www.w3.org/2000/svg" xmlns:xlink="http://www.w3.org/1999/xlink" viewBox="0 0 100 140"><defs><path id="a" d="M0 0h100v140H0z"/></defs><clipPath id="b"><use xlink:href="#a" overflow="visible"/></clipPath><path fill="#fff" d="M51.8 13.1a39.1 39.1 0 0 0-10 8.1L29.7 0 8.5 12.2l12.2 21.2A39.74 39.74 0 0 0-6.1 92.2L21.2 140l21.2-12.1-9.1-15.9c5.2-.7 10.3-2.3 14.9-5 3.9-2.2 7.2-5 10-8.1l1 1.8 21.2-12.2-1-1.8C101 82.4 115 61.5 110.7 40S85.5 4.3 63.9 8.6c-4.2.8-8.3 2.4-12.1 4.5zm34 42.9c-3.1 7-10.4 11.2-18 10.3a17.67 17.67 0 0 0-21.3 12.2c-4 8.9-14.5 12.9-23.4 8.9S10.2 73 14.2 64.1c3.1-7 10.4-11.2 18-10.3a17.73 17.73 0 0 0 21.3-12.2c4-8.9 14.5-12.9 23.4-8.9S89.7 47.1 85.8 56z" clip-path="url(#b)"/></svg>