<svg xmlns="http://www.w3.org/2000/svg" viewBox="0 0 128 128"><path d="M88.82 28.37c-4.27-.02-8.5.66-12.55 2.01l.07-24.16-24.16-.07-.13 47.2v.1h.01a17.4 17.4 0 0 0 24.16.05 17.46 17.46 0 1 1-.08 28.25 17.4 17.4 0 0 0-24.16-.1l-.03.03v.03l-.07 25.14 24.15.07.01-2.06a39.3 39.3 0 1 0 12.78-76.5z" fill="#0f1b61"/><path d="M51.93 81.68a17.46 17.46 0 1 1 .08-28.26 17.4 17.4 0 0 0 24.16.1A39.3 39.3 0 0 0 .15 67.43L0 121.77l24.1.07.05-18.13a39.3 39.3 0 0 0 51.94-22 17.42 17.42 0 0 0-24.16-.04z" style="fill:#2dbcb7"/><path d="m51.93 81.68-.06 23.12a39.4 39.4 0 0 0 24.22-23.08 17.41 17.41 0 0 0-24.16-.04zm.15-51.37L52 53.43a17.4 17.4 0 0 0 24.16.1 39.4 39.4 0 0 0-24.1-23.22z" style="fill:#757bb9"/></svg>